<svg width="17" height="10" viewBox="0 0 17 10" fill="none" xmlns="http://www.w3.org/2000/svg">
<path fill-rule="evenodd" clip-rule="evenodd" d="M10.8555 0.0365761C10.5408 0.161463 10.3816 0.592124 10.527 0.92555C10.5825 1.05305 10.6523 1.12402 11.0333 1.44065C11.2365 1.6096 12.0972 2.32696 12.9458 3.03478L14.4888 4.32174L7.45924 4.33044C1.51691 4.33779 0.423128 4.34285 0.387528 4.36318C0.364361 4.37642 0.294424 4.42593 0.232101 4.4732C0.138172 4.54447 0.109378 4.57894 0.0636178 4.67487C0.0105623 4.78614 0.00843938 4.79859 0.00843938 4.99964C0.00843938 5.18103 0.0135781 5.22021 0.0472075 5.29565C0.0943492 5.40138 0.161473 5.47611 0.294862 5.57132L0.395952 5.64348L7.45068 5.65218L14.5054 5.66087L12.5724 7.29033C11.5093 8.18652 10.6191 8.94174 10.5942 8.96859C10.4908 9.08002 10.4433 9.28824 10.4797 9.47035C10.5434 9.78849 10.7512 9.97574 11.0628 9.99579C11.2694 10.0091 11.3214 9.98783 11.6675 9.74852C12.3118 9.30294 12.8754 8.84129 13.9502 7.87868C15.46 6.52651 15.9234 6.1331 16.5199 5.69727C16.6496 5.60251 16.7769 5.50487 16.8027 5.48028C16.8752 5.41143 16.9458 5.28696 16.972 5.18204C16.9884 5.11607 16.9983 5.0976 17.0043 5.12174C17.0091 5.14087 17.0129 5.07826 17.0129 4.98261C17.0129 4.86856 17.0085 4.82666 17 4.86087C16.9909 4.89793 16.9866 4.90261 16.9852 4.87701C16.9841 4.8572 16.9714 4.80539 16.9571 4.7619C16.932 4.68604 16.8182 4.58847 14.168 2.37185C11.8296 0.415898 11.3916 0.0563674 11.3173 0.0314979C11.1916 -0.0105369 10.968 -0.00808473 10.8555 0.0365761ZM0.00616485 5C0.0062154 5.09565 0.00904592 5.13256 0.0124493 5.08202C0.0158695 5.0315 0.0158358 4.95324 0.0123819 4.90811C0.00891114 4.86299 0.00613116 4.90435 0.00616485 5Z" fill="black"/>
</svg>
