<svg width="17" height="10" viewBox="0 0 17 10" fill="none" xmlns="http://www.w3.org/2000/svg">
<path fill-rule="evenodd" clip-rule="evenodd" d="M6.14455 9.96342C6.45924 9.83854 6.61839 9.40788 6.47304 9.07445C6.41746 8.94695 6.34769 8.87598 5.96673 8.55935C5.76347 8.3904 4.90281 7.67304 4.05416 6.96522L2.51117 5.67826L9.54076 5.66956C15.4831 5.66221 16.5769 5.65715 16.6125 5.63682C16.6356 5.62358 16.7056 5.57407 16.7679 5.5268C16.8618 5.45553 16.8906 5.42106 16.9364 5.32513C16.9894 5.21386 16.9916 5.20141 16.9916 5.00036C16.9916 4.81897 16.9864 4.77979 16.9528 4.70435C16.9057 4.59862 16.8385 4.52389 16.7051 4.42868L16.604 4.35652L9.54932 4.34782L2.49459 4.33913L4.42757 2.70967C5.4907 1.81348 6.38092 1.05826 6.40582 1.03141C6.50922 0.919981 6.55669 0.711755 6.52025 0.529651C6.45656 0.211512 6.24879 0.0242593 5.9372 0.00420711C5.7306 -0.00909724 5.67857 0.0121726 5.33254 0.251477C4.68821 0.69706 4.12462 1.15871 3.04979 2.12132C1.53999 3.47349 1.07656 3.8669 0.480095 4.30273C0.350397 4.39749 0.223124 4.49513 0.197262 4.51972C0.124797 4.58857 0.0541692 4.71304 0.0280205 4.81796C0.0115765 4.88393 0.00166956 4.9024 -0.00431161 4.87826C-0.00906284 4.85913 -0.0129377 4.92174 -0.0129209 5.01739C-0.0128872 5.13144 -0.00845622 5.17334 -1.51907e-05 5.13913C0.00911662 5.10207 0.0134301 5.09739 0.0148454 5.12299C0.0159405 5.1428 0.0285767 5.19461 0.0429315 5.2381C0.067985 5.31396 0.181829 5.41153 2.83196 7.62815C5.17041 9.5841 5.60835 9.94363 5.6827 9.9685C5.80844 10.0105 6.03202 10.0081 6.14455 9.96342ZM16.9938 5C16.9938 4.90435 16.991 4.86744 16.9876 4.91798C16.9841 4.9685 16.9842 5.04676 16.9876 5.09189C16.9911 5.13701 16.9939 5.09565 16.9938 5Z" fill="black"/>
</svg>
