<svg width="17" height="17" viewBox="0 0 17 17" fill="none" xmlns="http://www.w3.org/2000/svg">
<path fill-rule="evenodd" clip-rule="evenodd" d="M6.74751 0.0781639C3.46629 0.791712 0.887007 3.36131 0.181422 6.61961C0.0248842 7.34257 -0.00231382 7.62533 0.000146629 8.50615C0.00204184 9.18698 0.0145104 9.39196 0.0759552 9.75321C0.235619 10.6922 0.459221 11.3915 0.863866 12.2176C1.69091 13.9059 3.09403 15.3093 4.78174 16.1364C5.60769 16.5411 6.30533 16.7643 7.24625 16.9249C7.60817 16.9867 7.80833 16.9989 8.47648 17C9.31769 17.0013 9.61683 16.9737 10.3052 16.8313C13.6025 16.149 16.224 13.5347 16.9208 10.2337C17.0228 9.75071 17.0245 9.66505 16.9361 9.48228C16.8137 9.22938 16.5231 9.11768 16.2544 9.2203C16.1346 9.26606 16.057 9.33742 15.8611 9.58178C15.5627 9.9539 15.048 10.458 14.7042 10.7148C12.9718 12.0085 10.5706 12.2588 8.60947 11.3499C6.95974 10.5854 5.72622 9.09942 5.28321 7.34284C5.17591 6.91744 5.13126 6.58579 5.11287 6.07856C5.06393 4.72728 5.48613 3.36393 6.28481 2.2941C6.5416 1.95014 7.04559 1.43536 7.41765 1.13696C7.66197 0.941059 7.73332 0.863409 7.77907 0.743625C7.88168 0.474893 7.76999 0.184247 7.51713 0.0618025C7.33892 -0.0244936 7.20665 -0.021667 6.74751 0.0781639ZM6.95379 0.593081C5.41215 0.908868 3.96776 1.68583 2.86924 2.79026C1.62278 4.04343 0.840425 5.63384 0.589725 7.42424C0.525686 7.8816 0.518571 8.97109 0.576791 9.40403C0.823933 11.2412 1.60007 12.8206 2.88972 14.1104C4.17939 15.4003 5.75847 16.1766 7.59537 16.4237C8.02824 16.482 9.11756 16.4749 9.57484 16.4108C13.016 15.9288 15.7153 13.4133 16.4049 10.0457C16.4378 9.88483 16.4594 9.74719 16.4527 9.73981C16.4461 9.73246 16.4068 9.76967 16.3654 9.82254C15.7062 10.6641 14.9783 11.273 14.0947 11.7217C13.1231 12.2151 12.2299 12.4284 11.1292 12.4296C9.59498 12.4313 8.26435 11.9706 7.04675 11.0161C6.74023 10.7757 6.20561 10.2433 5.97902 9.95274C5.03274 8.73917 4.56858 7.39372 4.57027 5.86958C4.57154 4.76878 4.78473 3.87539 5.27805 2.90369C5.72675 2.01994 6.33548 1.2919 7.17692 0.632621C7.22979 0.591219 7.267 0.551911 7.25965 0.54526C7.25227 0.538609 7.11465 0.560159 6.95379 0.593081Z" fill="black"/>
</svg>
